<?xml version="1.0" encoding="UTF-8" standalone="no"?>
<!-- Created with Inkscape (http://www.inkscape.org/) -->

<svg
   xmlns:dc="http://purl.org/dc/elements/1.1/"
   xmlns:cc="http://creativecommons.org/ns#"
   xmlns:rdf="http://www.w3.org/1999/02/22-rdf-syntax-ns#"
   xmlns:svg="http://www.w3.org/2000/svg"
   xmlns="http://www.w3.org/2000/svg"
   xmlns:sodipodi="http://sodipodi.sourceforge.net/DTD/sodipodi-0.dtd"
   xmlns:inkscape="http://www.inkscape.org/namespaces/inkscape"
   width="300"
   height="300"
   viewBox="0 0 300 300"
   id="svg2"
   version="1.1"
   inkscape:version="0.91 r13725"
   sodipodi:docname="è¯-seal.svg">
  <defs
     id="defs4">
    <clipPath
       clipPathUnits="userSpaceOnUse"
       id="clipPath4204">
      <rect
         style="fill:#0000ff;fill-rule:evenodd;stroke:#000000;stroke-width:1px;stroke-linecap:butt;stroke-linejoin:miter;stroke-opacity:1"
         id="rect4206"
         width="15.451179"
         height="21.584471"
         x="164.41942"
         y="794.64594" />
    </clipPath>
  </defs>
  <sodipodi:namedview
     id="base"
     pagecolor="#ffffff"
     bordercolor="#666666"
     borderopacity="1.0"
     inkscape:pageopacity="0.0"
     inkscape:pageshadow="2"
     inkscape:zoom="1.71"
     inkscape:cx="150"
     inkscape:cy="150"
     inkscape:document-units="px"
     inkscape:current-layer="layer1"
     showgrid="false"
     inkscape:window-width="1280"
     inkscape:window-height="751"
     inkscape:window-x="0"
     inkscape:window-y="1"
     inkscape:window-maximized="1"
     units="px"
     showguides="false" />
  <metadata
     id="metadata7">
    <rdf:RDF>
      <cc:Work
         rdf:about="">
        <dc:format>image/svg+xml</dc:format>
        <dc:type
           rdf:resource="http://purl.org/dc/dcmitype/StillImage" />
        <dc:title></dc:title>
      </cc:Work>
    </rdf:RDF>
  </metadata>
  <g
     inkscape:label="Layer 1"
     inkscape:groupmode="layer"
     id="layer1"
     transform="translate(0,-752.36216)">
    <path
       style="fill:#000000"
       d="m 132.58969,1034.3541 c -0.83088,-2.1653 3.64533,-8.4392 11.93668,-16.7305 14.54652,-14.5466 23.97529,-30.78697 25.25142,-43.49395 l 0.82365,-8.20131 -13.55307,-0.70688 c -14.89287,-0.77679 -14.56901,-0.32532 -13.68653,-19.07883 l 0.48742,-10.3575 -35.53283,1.53758 c -13.338365,-2.8125 -35.532814,6.16737 -35.532814,-4.3741 -2.231698,-12.01045 24.507866,-6.08294 34.766574,-6.15463 42.26704,-0.29534 63.85823,-1.08135 90.15739,-3.28218 18.55064,-1.55238 20.43176,-1.29888 25.39061,3.42184 2.94561,2.80411 4.71545,6.13426 3.933,7.40028 -0.83477,1.35071 -15.59538,2.17516 -35.72144,1.9952 -36.65735,-0.32777 -40.15862,0.73837 -35.5612,10.82857 1.76703,3.87823 5.15344,5.61352 13.07315,6.69904 5.99833,0.82216 12.0623,3.27494 13.81951,5.58978 3.52172,4.63928 4.3182,17.32952 1.30182,20.74202 -1.0886,1.23156 -3.40106,5.95157 -5.1388,10.4889 -10.30453,26.90567 -41.38017,56.27487 -46.21454,43.67667 z M 100.09384,912.39612 c -3.150734,-1.76325 -3.411024,-2.95009 -1.224714,-5.58443 1.891164,-2.27871 7.801414,-3.34533 18.536654,-3.34533 9.05196,0 17.34441,-1.25409 19.48196,-2.94632 4.10901,-3.25295 7.0524,-23.16184 4.12468,-27.89898 -1.01985,-1.65015 -3.4253,-3.23084 -5.34545,-3.51265 -1.92015,-0.28184 -6.64093,-2.8411 -10.49062,-5.68732 -6.8104,-5.03514 -7.21455,-5.06411 -14.96447,-1.07239 -4.38078,2.25639 -9.68048,6.06688 -11.777104,8.46775 -4.80008,5.49663 -10.52713,5.60916 -12.58468,0.2473 -1.07442,-2.79992 0.28759,-5.62895 4.25548,-8.83896 14.629704,-11.83534 19.336204,-15.26674 20.980204,-15.29616 0.97228,-0.0165 1.76779,-4.27431 1.76779,-9.45983 0,-8.05133 -0.73387,-9.42822 -5.02505,-9.42822 -2.76379,0 -8.620754,-3.81254 -13.015484,-8.4723 -7.55757,-8.01335 -7.90851,-9.13055 -6.47877,-20.62424 1.61393,-12.97408 5.77639,-19.70937 10.41055,-16.84529 1.792804,1.10801 2.351684,4.7849 1.512934,9.95352 -2.206844,13.5991 0.48121,21.84597 7.12061,21.84597 5.71414,0 5.7195,-0.0245 4.58808,-21.06482 -0.88344,-16.42889 -0.39171,-21.6798 2.23426,-23.85918 2.59719,-2.15546 4.14285,-2.15044 6.76051,0.0212 2.50187,2.07638 3.32993,8.03796 3.1515,22.68942 -0.25629,21.04491 0.50653,23.62892 6.31712,21.3992 2.66241,-1.02155 3.63724,-4.83732 3.63724,-14.237 0,-13.29655 2.51564,-16.68458 9.66751,-13.02007 2.30688,1.18199 3.59614,4.49552 3.31527,8.52045 -0.25279,3.62244 -0.62565,9.99055 -0.82857,14.15132 -0.40681,8.34178 -10.39825,19.5411 -17.43349,19.5411 -3.33583,0 -4.14894,2.04522 -4.14894,10.43567 0,8.46641 1.17195,11.35755 6.21051,15.32087 3.41578,2.68685 7.0286,4.88518 8.02851,4.88518 0.99991,0 2.551,-5.32946 3.44687,-11.84326 1.35273,-9.83554 2.7689,-12.43276 8.35383,-15.32086 10.48515,-5.42208 16.38728,-4.55228 16.38728,2.41504 0,4.26153 -1.26637,5.89264 -4.57499,5.89264 -2.51625,0 -5.1253,0.89038 -5.79787,1.9786 -0.67256,1.08826 -1.92981,14.1818 -2.79386,29.0968 -1.2721,21.95873 -0.95381,27.32641 1.67301,28.21264 1.78422,0.60197 12.25976,0.42948 23.27899,-0.38331 20.16712,-1.48754 29.34962,0.33367 27.65353,5.48461 -1.11562,3.38808 -20.75115,5.72675 -63.00936,7.50466 -17.50114,0.73632 -33.5258,1.69349 -35.61033,2.12705 -2.08454,0.43358 -5.59054,-0.21921 -7.79113,-1.45079 z M 84.419816,895.03701 c -1.889,-2.27606 -2.20366,-4.3304 -0.81232,-5.30337 15.13555,-10.58429 30.092874,-19.26606 33.192374,-19.26606 2.12013,0 7.98281,4.33946 13.0282,9.64326 7.33287,7.70847 8.62049,10.30948 6.41758,12.96381 -3.84433,4.63215 -5.79279,4.20616 -12.79681,-2.79785 -6.46849,-6.4685 -14.1177,-6.52186 -20.49658,-0.14308 -3.089984,3.08999 -12.329804,8.61841 -14.404204,8.61841 -0.5747,0 -2.43239,-1.67186 -4.12824,-3.71524 z m 76.819914,-5.12372 c -1.19196,-3.0418 1.35512,-6.75511 9.70077,-14.14233 6.22442,-5.50962 13.27642,-10.01749 15.6711,-10.01749 4.04424,0 22.63735,11.38943 29.36316,17.98674 5.44987,5.34576 3.46627,10.29793 -4.12484,10.29793 -4.12472,-0.39725 -15.61186,-6.95759 -18.31346,-9.42822 -7.02558,-6.54534 -12.66813,-5.89903 -20.57797,2.35705 -7.8385,8.18163 -9.50322,8.60019 -11.71876,2.94632 z m -0.65578,-18.81032 c -4.84295,-1.69012 -3.51272,-11.92324 1.76779,-13.5992 4.35756,-1.4357 5.55777,-5.51502 9.42823,-6.57559 3.93576,-1.02924 4.71411,-3.21507 4.71411,-13.23871 0,-10.43457 -0.61701,-12.00595 -4.71411,-12.00595 -2.59276,0 -6.8848,-2.17068 -9.53785,-4.82374 -4.01416,-4.01416 -4.70645,-7.27779 -4.12485,-19.44571 0.63478,-13.28057 1.20321,-14.69339 6.19618,-15.40058 5.01952,-0.71093 5.44527,0.007 4.89893,8.2497 -0.7437,11.22095 1.86936,19.63505 6.09775,19.63505 2.52556,0 2.97588,-3.79637 2.10593,-17.754 -0.8755,-14.04679 -0.33531,-18.52524 2.58701,-21.44756 6.89253,-6.89251 10.63334,-0.0481 10.63334,19.45518 0,15.51985 0.48202,17.38932 4.48352,17.38932 4.77276,0 9.65882,-10.31294 9.65882,-20.38669 0,-3.96954 1.3369,-5.54092 4.71411,-5.54092 4.23587,0 4.71411,1.57138 4.71411,15.48923 0,17.1518 -2.09507,20.75616 -13.52372,23.26633 -17.87203,3.92535 -15.81417,16.54752 4.26226,26.14317 9.48057,4.5313 13.97557,8.05653 13.97557,10.96045 0,3.4228 -1.88955,4.28072 -9.42822,4.28072 -5.18552,0 -9.42822,-1.02336 -9.42822,-2.27414 0,-3.84659 -9.55473,-7.63339 -15.49717,-6.14192 -3.09644,0.77715 -9.09652,4.42368 -13.33354,8.1034 -4.23702,3.67971 -9.0295,6.22769 -10.64998,5.66216 z"
       id="path5567"
       inkscape:connector-curvature="0"
       sodipodi:nodetypes="ssscssccccsssssssssscsssscssssscssssssssscscsssssssssssscsssssscccsssssssccssssccsssccssssssssssssssssssssss" />
  </g>
</svg>
